<svg xmlns="http://www.w3.org/2000/svg" viewBox="0 0 748.86 113.55"><defs><style>.cls-1{fill:#fff;}</style></defs><g id="Layer_2" data-name="Layer 2"><g id="Layer_1-2" data-name="Layer 1"><path class="cls-1" d="M14.19,31.94h0A17.74,17.74,0,0,0,31.93,49.68H138.38a31.94,31.94,0,0,1,31.94,31.93h0a31.94,31.94,0,0,1-31.94,31.94H14.19a7.09,7.09,0,0,1-7.09-7.1h0a7.08,7.08,0,0,1,7.09-7.09H138.38a17.75,17.75,0,0,0,17.75-17.75h0a17.75,17.75,0,0,0-17.75-17.74H31.93A31.94,31.94,0,0,1,0,31.94H0A31.94,31.94,0,0,1,31.93,0h124.2a7.09,7.09,0,0,1,7.09,7.1h0a7.09,7.09,0,0,1-7.09,7.1H31.93A17.74,17.74,0,0,0,14.19,31.94Z"/><path class="cls-1" d="M197.58,31.94h0a17.74,17.74,0,0,0,17.74,17.74H321.77A31.93,31.93,0,0,1,353.7,81.61h0a31.93,31.93,0,0,1-31.93,31.94H197.58a7.1,7.1,0,0,1-7.1-7.1h0a7.09,7.09,0,0,1,7.1-7.09H321.77a17.75,17.75,0,0,0,17.74-17.75h0a17.74,17.74,0,0,0-17.74-17.74H215.32a31.94,31.94,0,0,1-31.94-31.93h0A31.94,31.94,0,0,1,215.32,0H339.51a7.1,7.1,0,0,1,7.1,7.1h0a7.1,7.1,0,0,1-7.1,7.1H215.32A17.74,17.74,0,0,0,197.58,31.94Z"/><path class="cls-1" d="M748.86,106.45h0a7.1,7.1,0,0,1-7.1,7.1h-143a20.24,20.24,0,0,1-20.24-20.24V7.1a7.1,7.1,0,0,1,7.1-7.1h0a7.09,7.09,0,0,1,7.09,7.1V93.74a5.62,5.62,0,0,0,5.62,5.62H741.76A7.09,7.09,0,0,1,748.86,106.45Z"/><path class="cls-1" d="M544.44,113.55H544a5.42,5.42,0,0,1-4.78-2.84,87.75,87.75,0,0,0-69.67-46.33c-2.6-.25-5.25-.37-7.91-.37a87.87,87.87,0,0,0-62.16,25.81c-1.49,1.49-2.94,3-4.31,4.66s-2.64,3.14-3.87,4.8a5.84,5.84,0,0,1-1.88,1.65c-4.63,2.48-9.75-2.94-7-7.38a.44.44,0,0,1,.06-.1c6.65-10.12,33-43.77,127.46-43.77h9a18,18,0,0,0,18.13-17.5,17.74,17.74,0,0,0-17.74-18h-131A7.32,7.32,0,0,1,381,6.86,7.17,7.17,0,0,1,383,2.08a7,7,0,0,1,5-2.08H518.73c17.9,0,32.88,14.66,32.54,32.56A32.09,32.09,0,0,1,550,40.93c-4.85,16.51-23.12,24.89-39.36,19.22-14.85-5.19-61.34-8.82-88.29,8.6,6.43-4.16,52.24-22.3,94,4,10.44,8,25.47,16.82,34.46,26.13A8.69,8.69,0,0,1,544.44,113.55Z"/><circle class="cls-1" cx="406.71" cy="53.36" r="8.29"/></g></g></svg>